# xmcd
#
# Track frame offsets:
#	150
#	13922
#	27572
#	58170
#	73765
#	86783
#	107468
#	120067
#	144023
#
# Disc length: 2101 seconds
#
# Revision: 0
# Processed by: cddbd v1.5.1PL0 Copyright (c) Steve Scherf et al.
# Submitted via: EasyCDDAExtractor 8.2.0.1
#
DISCID=72083309
DTITLE=Koko Taylor - The Earthshaker
DYEAR=1978
DGENRE=Blues
TTITLE0=Let The Good Times Roll
TTITLE1=Spoonful
TTITLE2=Walking The Back Streets
TTITLE3=Cut You Loose
TTITLE4=Hey Bartender
TTITLE5=I'm A Woman
TTITLE6=You Can Have My Husband
TTITLE7=Please Don't Dog Me
TTITLE8=Wang Dang Doodle
EXTD=
EXTT0=
EXTT1=
EXTT2=
EXTT3=
EXTT4=
EXTT5=
EXTT6=
EXTT7=
EXTT8=
PLAYORDER=
